# xmcd CD database file
# Copyright (C) 1997 Ti Kan
# 
# Track frame offsets:
#     150
#     18373
#     44173
#     63824
#     78800
#     98570
#     110227
#     126881
#     137370
#     161547
#     177219
#     193240
#     215618
#     230936
# 
# Disc length: 3369 seconds
# 
# Revision: 1
# Processed by: cddbd v1.4b41PL1 Copyright (c) Steve Scherf et al.
# Submitted via: DiscPlay 4.0.1
# 
DISCID=c30d270e
DTITLE=Various Artist - Country Picks Classic Rock
DYEAR=1900
DGENRE=
TTITLE0=Black Magic Woman
TTITLE1=Light My Fire
TTITLE2=Fire and Rain
TTITLE3=A Horse With No Name
TTITLE4=Dream On
TTITLE5=Sounds of Silence
TTITLE6=Ramblin' Man
TTITLE7=Strawberry Fields Forever
TTITLE8=Stairway to Heaven
TTITLE9=Ruby Tuesday
TTITLE10=Wish You Were Here
TTITLE11=Rhiannon
TTITLE12=Goodbye Yellow Brick Road
TTITLE13=Hotel California
EXTD=
EXTT0=
EXTT1=
EXTT2=
EXTT3=
EXTT4=
EXTT5=
EXTT6=
EXTT7=
EXTT8=
EXTT9=
EXTT10=
EXTT11=
EXTT12=
EXTT13=
PLAYORDER=
